# xmcd
#
# Track frame offsets:
#	150
#	16893
#	32377
#	46409
#	64059
#	76932
#	89825
#	101277
#	116991
#	138655
#	158165
#	170577
#	182745
#	198452
#	217692
#	227908
#
# Disc length: 3237 seconds
# Revision: 0
# Processed by: cddbd v1.5.2PL0 Copyright (c) Steve Scherf et al.
# Submitted via: dBpowerAMP V12.0
#
DISCID=d50ca310
DTITLE=Angelo M - From Steel to Strings
DYEAR=2011
DGENRE=Folk/Rock
TTITLE0=That Train
TTITLE1=Every Kind of Blues
TTITLE2=Far From Home
TTITLE3=Wounded From the Heart
TTITLE4=Lost
TTITLE5=Anytime
TTITLE6=Stop Blamin' Me
TTITLE7=All Thats Runnin'
TTITLE8=Priorities
TTITLE9=Thirty Years
TTITLE10=Runnin' Late
TTITLE11=Sweet Litlle Thing
TTITLE12=Far From Home II
TTITLE13=Never Been the Same
TTITLE14=Ain't Our Love Song
TTITLE15=Half the Time
EXTD=
EXTT0=
EXTT1=
EXTT2=
EXTT3=
EXTT4=
EXTT5=
EXTT6=
EXTT7=
EXTT8=
EXTT9=
EXTT10=
EXTT11=
EXTT12=
EXTT13=
EXTT14=
EXTT15=
PLAYORDER=
